PathFileType	3	(X/Y/Z)	D:\ViconData\Biomechanics course\HT2024\Leo31oct\Walk_Norm15.trc
DataRate	CameraRate	NumFrames	NumMarkers	Units	OrigDataRate	OrigDataStartFrame	OrigNumFrames
100.0	100.0	6	53	mm	100.0	159	210	
Frame#	Time	LFHD			RFHD			LBHD			RBHD			C7			T10			CLAV			STRN			RBAK			LSHO			LUPA			LELB			LFRM			LWRA			LWRB			LFIN			RSHO			RUPA			RELB			RFRM			RWRA			RWRB			RFIN			LASI			RASI			LPSI			RPSI			LTHI			LTHAP			LTHAD			LKNE			LKNM			LTIB			LTIAP			LTIAD			LANK			LMED			LHEE			LTOE			RTHI			RTHAP			RTHAD			RKNE			RKNM			RTIB			RTIAP			RTIAD			RANK			RMED			RHEE			RTOE			LPel			RPel			
		X1	Y1	Z1	X2	Y2	Z2	X3	Y3	Z3	X4	Y4	Z4	X5	Y5	Z5	X6	Y6	Z6	X7	Y7	Z7	X8	Y8	Z8	X9	Y9	Z9	X10	Y10	Z10	X11	Y11	Z11	X12	Y12	Z12	X13	Y13	Z13	X14	Y14	Z14	X15	Y15	Z15	X16	Y16	Z16	X17	Y17	Z17	X18	Y18	Z18	X19	Y19	Z19	X20	Y20	Z20	X21	Y21	Z21	X22	Y22	Z22	X23	Y23	Z23	X24	Y24	Z24	X25	Y25	Z25	X26	Y26	Z26	X27	Y27	Z27	X28	Y28	Z28	X29	Y29	Z29	X30	Y30	Z30	X31	Y31	Z31	X32	Y32	Z32	X33	Y33	Z33	X34	Y34	Z34	X35	Y35	Z35	X36	Y36	Z36	X37	Y37	Z37	X38	Y38	Z38	X39	Y39	Z39	X40	Y40	Z40	X41	Y41	Z41	X42	Y42	Z42	X43	Y43	Z43	X44	Y44	Z44	X45	Y45	Z45	X46	Y46	Z46	X47	Y47	Z47	X48	Y48	Z48	X49	Y49	Z49	X50	Y50	Z50	X51	Y51	Z51	X52	Y52	Z52	X53	Y53	Z53	
159	1.58	191.79948	1686.5189	307.2272	308.54095	1686.7323	304.11847				305.69705	1692.2157	158.69107	250.15068	1551.2174	368.89108	254.19519	1319.1625	448.07407	244.30495	1470.36	247.72719	239.36943	1277.7725	209.69032	337.63187	1441.2324	427.39297	82.789116	1510.5385	306.72058	-17.758579	1234.1375	361.96335	-27.493687	1156.2103	375.63708	-36.037766	1031.1644	365.80719	14.04287	885.31848	313.27515	-18.557396	879.89624	373.88397	-18.408514	795.27258	308.16714	404.92346	1496.6437	299.11276	507.28989	1234.2219	328.40552	525.54767	1151.8646	338.97046	531.177	1030.7263	263.5025	498.37704	884.54028	238.4203	476.79617	899.87555	172.21034	510.19733	822.70947	144.34834	123.83041	1037.4677	260.10001	363.5647	1045.5027	254.22043	196.62369	1059.515	447.67151	280.66705	1066.7134	446.2341	82.472183	663.52948	210.36987	148.91565	754.24573	133.39177	149.60365	639.24817	98.697144	100.62741	535.16498	180.05351				113.93614	283.32556	260.48553	134.28242	428.27747	147.24742	147.49278	220.52814	227.7005	140.45653	124.68663	297.31024				191.77956	109.63461	360.6412	154.70157	74.319939	211.40559	380.03546	611.72327	325.56256	309.21606	705.91901	234.07574	304.55777	620.35297	247.85207	365.95944	503.08292	333.46167				343.6647	228.37076	412.06696	314.05829	419.3649	301.99225	295.7865	222.17183	366.66125	310.07251	96.110245	447.48969				267.521	66.383049	509.48877	282.18039	49.340366	350.56824	80.713539	1058.8424	344.75104	386.57498	1075.4681	387.88226
160	1.59	191.15981	1685.9686	294.24847	307.90762	1686.4895	291.21021				305.11752	1692.2417	145.78072	249.74887	1550.8898	355.7482	254.04642	1318.947	435.31625	244.14566	1470.0222	234.63664	239.59317	1277.4147	196.8363	337.36737	1441.1074	414.43683	82.398384	1510.0112	293.39041	-18.497894	1234.848	353.22989	-28.33489	1157.3451	368.44894	-37.877808	1032.1989	361.70209	10.659585	884.711	312.3562	-21.393854	881.05481	373.46719	-22.398193	794.62708	310.04266	404.6539	1496.673	286.20581	508.0145	1234.5657	314.6947	526.5448	1152.1954	324.79495	531.8988	1032.0498	247.7364	498.87076	886.30188	220.50693	477.12787	902.76385	154.5699	510.24979	825.99268	125.4652	124.50647	1037.2606	245.89279	364.33478	1045.1492	242.41972	195.2979	1059.2369	434.164	279.31723	1066.3729	433.52213	82.532639	663.60583	196.55125	149.39621	754.50043	119.6501	150.14403	639.48706	85.172081	100.26634	533.92133	165.87621				113.68017	276.67761	229.71721	134.31644	428.94611	127.21853	147.38889	216.33583	192.82068	140.12077	116.00043	255.36436				191.06665	96.845322	317.89026	154.75192	71.282845	166.4684	380.41577	611.70331	319.36389	309.43655	705.04797	225.71063	304.82413	619.4151	240.92236	366.38132	503.04358	328.86444				343.82294	228.9718	410.32932	314.5527	418.94806	298.38052	296.04205	222.32484	364.89304	310.06177	96.953232	446.85266				267.36017	67.782097	509.09274	282.19772	49.507126	350.29968	80.521996	1058.6215	330.11023	385.8259	1075.1509	376.37381
161	1.6	190.46127	1685.201	281.20529	307.21494	1686.0195	278.26688				304.51944	1692.0316	132.83469	249.25763	1550.3423	342.55557	253.76373	1318.5073	422.51718	243.93837	1469.4534	221.49048	239.78717	1276.8174	183.95341	336.98541	1440.7513	401.45303	81.948112	1509.2509	279.9563	-19.311398	1235.4269	344.35941	-29.263899	1158.3684	361.11011	-39.709499	1033.2042	357.32959	7.4116406	884.28455	311.05267	-24.103756	882.30737	372.58636	-26.101046	794.22559	311.3786	404.31934	1496.4587	273.2868	508.64417	1234.6615	301.04813	527.44269	1152.2834	310.71027	532.54553	1033.1211	232.13728	499.31702	887.82159	202.83955	477.41962	905.36401	137.17661	510.25964	828.98657	106.87624	125.16139	1036.7565	231.5838	365.07492	1044.6356	230.56236	193.91634	1058.7085	420.55707	277.90591	1065.8124	420.72598	82.621101	662.9024	183.63428	149.76169	753.74432	106.42331	150.59904	638.73651	72.456497	99.811295	532.14673	152.32182				113.25753	270.54938	198.92632	134.32927	429.41385	107.77724	147.2341	212.96225	158.10646	139.6172	108.52955	213.10303				189.93687	85.388481	274.6846	155.02179	69.516899	121.56927	380.81235	611.66754	313.12741	309.7739	704.10986	217.24101	305.17871	618.44733	233.8349	366.79996	503.00223	324.18735				343.96844	229.62131	408.55267	315.0553	418.53094	294.67896	296.29599	222.4957	363.0759	310.02728	97.853806	446.19461				267.15991	69.262054	508.6763	282.20651	49.677605	350.04135	80.295174	1058.0734	315.36279	385.00879	1074.6697	364.81128
162	1.61	189.70007	1684.2285	268.09048	306.45898	1685.3315	265.28058				303.89819	1691.5891	119.84537	248.67377	1549.5845	329.30896	253.34969	1317.849	409.66837	243.67369	1468.6628	208.28377	239.93854	1275.9907	171.02583	336.48431	1440.1719	388.43381	81.431694	1508.2665	266.42374	-20.192982	1235.8691	335.32983	-30.269899	1159.2708	353.59375	-41.524044	1034.1604	352.6568	4.3067288	883.99994	309.3259	-26.681026	883.61462	371.20847	-29.517534	794.01801	312.13516	403.914	1496.0078	260.34604	509.16589	1234.512	287.46161	528.22803	1152.1306	296.71542	533.11224	1033.9355	216.70992	499.71628	889.08795	185.43332	477.67923	907.65814	120.03946	510.24646	831.67224	88.595306	125.79304	1035.969	217.17776	365.7821	1043.9618	218.62755	192.48979	1057.9401	406.84866	276.44504	1065.0389	407.83411	82.674492	661.44067	171.55132	150.01837	751.96613	93.723824	150.96519	637.04724	60.510189	99.267479	529.91852	139.25478				112.70236	265.07538	168.27119	134.32942	429.71036	88.877678	147.071	210.49565	123.77959	139.0218	102.44109	170.89107				188.51068	75.47541	231.39835	155.53993	69.102036	77.077065	381.22272	611.61182	306.84717	310.23404	703.09174	208.67282	305.63547	617.43671	226.59512	367.21448	502.95139	319.42477				344.10129	230.31531	406.72952	315.56235	418.10342	290.88104	296.54605	222.67842	361.20227	309.9682	98.810516	445.5137				266.92316	70.820091	508.23407	282.20511	49.855618	349.79062	80.034317	1057.2153	300.51096	384.13058	1074.0262	353.17188
163	1.62	188.87175	1683.0673	254.89807	305.63519	1684.4388	252.24435				303.24774	1690.9229	106.80604	247.99435	1548.6284	316.00458	252.80849	1316.9813	396.76086	243.3423	1467.6641	195.01198	240.03442	1274.9487	158.03735	335.86349	1439.3804	375.37155	80.842445	1507.0693	252.79901	-21.136301	1236.1704	326.11957	-31.341635	1160.0433	345.87238	-43.313408	1035.0483	347.65164	1.3495302	883.81818	307.13995	-29.121653	884.93793	369.3038	-32.654575	793.95465	312.27896	403.43225	1495.3308	247.37393	509.56677	1234.1243	273.93121	528.88757	1151.7434	282.8096	533.59393	1034.4919	201.45921	500.06836	890.09277	168.30383	477.914	909.63147	103.16777	510.22946	834.03387	70.637321	126.39843	1034.9169	202.681	366.453	1043.1281	206.59451	191.03015	1056.9465	393.03827	274.94788	1064.0636	394.83615	82.628166	659.28015	160.18141	150.18419	749.20142	81.543022	151.25122	634.5144	49.25732	98.646019	527.32837	126.52377				112.06078	260.35294	137.95079	134.32584	429.86185	70.468666	146.94055	208.96764	90.094055	138.42137	97.824448	129.16702				186.94034	67.238785	188.48141	156.31392	70.036987	33.423832	381.642	611.53015	300.5098	310.81381	701.98004	200.01199	306.20004	616.36963	219.20863	367.62247	502.88223	314.565				344.22318	231.04868	404.84753	316.06821	417.65408	286.97641	296.79025	222.86734	359.2627	309.88779	99.822258	444.80618				266.65939	72.454132	507.76096	282.19394	50.046967	349.54257	79.740898	1056.0709	285.55914	383.2001	1073.2219	341.43243
164	1.63	187.97163	1681.7351	241.62341	304.73877	1683.3575	239.15219				302.56134	1690.0465	93.711052	247.21683	1547.4897	302.63934	252.14592	1315.916	383.78516	242.93521	1466.4738	181.67088	240.06242	1273.7096	144.97227	335.12332	1438.392	362.25906	80.173805	1505.6742	239.0891	-22.134895	1236.3273	316.70773	-32.467728	1160.6777	337.91843	-45.070377	1035.8506	342.28226	-1.4578108	883.70087	304.46133	-31.423639	886.24066	366.8457	-35.524334	793.9873	311.78214	402.86902	1494.4432	234.36145	509.83435	1233.51	260.453	529.40802	1151.1333	268.99182	533.98547	1034.7926	186.39015	500.37228	890.83142	151.46721	478.13055	911.27277	86.571266	510.22696	836.05829	53.018608	126.97359	1033.6235	188.10144	367.08377	1042.1355	194.44307	189.55029	1055.7477	379.12692	273.42917	1062.9008	381.72308	82.425797	656.51965	149.34813	150.28932	745.54132	69.841522	151.47826	631.2774	38.579712	97.965195	524.47864	113.96938				111.38789	256.4321	108.1983	134.32809	429.88925	52.496368	146.87749	208.34431	57.326332	137.90324	94.674698	88.423317				185.39174	60.715691	146.4442	157.32874	72.226143	-8.9141083	382.06265	611.41418	294.09344	311.50046	700.76135	191.26173	306.86777	615.23151	211.67876	368.01953	502.78497	309.58878				344.33789	231.81516	402.88968	316.56561	417.17062	282.94983	297.0271	223.05754	357.24591	309.79367	100.88876	444.06677				266.38492	74.163902	507.25299	282.17606	50.258827	349.29025	79.416748	1054.6697	270.51456	382.22769	1072.2603	329.56964
